:SAMPLES-PER-SECOND 30
:FULLY-SPECIFIED
:DEGREES
272
root  -72.0441 28.1783 9.99515 28.2227 79.9463 -0.437956
RightUpLeg  -52.7099 -14.6127 -20.8482
RightLeg  61.6432 -3.04742 -4.95049
RightFoot  -11.5042 0.240669 2.76658
RightToes  -43.2498 -0.24495 -0.332734
Spine  21.4605 -0.931817 0.595608
Spine1  34.3142 -4.17833 6.09213
HEad  -9.43547 -2.04172 3.92147
LeftShoulder1  0 -2.42657e-020 -4.95415e-022
LeftArm  -21.488 -39.8805 -79.1728
LeftForeArm  43.3272 -28.3911 -5.44708
LeftHand  0.347291 -13.1733 -3.37871
RightShoulder  0 2.42657e-020 1.07489e-018
RightArm  -48.763 43.8375 53.4157
RightForeArm  59.2154 64.5027 21.7776
RightHand  -2.57169 24.9422 -11.2229
LeftUpLeg  -62.801 5.27379 11.5401
LeftLeg  68.9918 -0.11788 -0.271548
LeftFoot  -15.0761 -0.179244 -1.35449
LeftToes  -43.1793 2.01279e-006 2.21547e-008
273
root  -72.7558 27.2967 10.743 30.1547 81.4225 0.759761
RightUpLeg  -50.4033 -10.0433 -26.3753
RightLeg  58.1247 -1.72937 -2.49486
RightFoot  -5.15369 0.0832634 2.22779
RightToes  -65.179 -0.443965 -0.409333
Spine  21.714 -0.228285 0.717682
Spine1  34.6564 -2.26183 5.73275
HEad  -11.0642 -3.79618 4.22092
LeftShoulder1  0 -2.42657e-020 -4.95415e-022
LeftArm  -19.0852 -41.6921 -82.557
LeftForeArm  41.658 -29.6885 -5.7505
LeftHand  0.284008 -12.7976 -2.90356
RightShoulder  0 2.42657e-020 1.07489e-018
RightArm  -41.3969 45.4047 53.8176
RightForeArm  61.3284 59.4226 17.383
RightHand  -3.36027 25.4294 -14.4475
LeftUpLeg  -66.2956 6.22931 12.8774
LeftLeg  71.3634 -0.46126 -1.14041
LeftFoot  -16.9195 -0.184255 -1.23879
LeftToes  -42.9141 2.01279e-006 2.21547e-008
274
root  -73.4584 26.0495 11.5474 32.176 83.3321 2.3442
RightUpLeg  -49.8483 -9.41228 -28.578
RightLeg  59.8692 1.6547 2.38167
RightFoot  -15.3653 0.151824 1.50307
RightToes  -68.3955 -0.475087 -0.413972
Spine  22.4094 0.861798 1.29572
Spine1  35.718 0.989753 5.16209
HEad  -12.4858 -6.15021 5.74356
LeftShoulder1  0 -2.42657e-020 -4.95415e-022
LeftArm  -15.0635 -44.213 -87.0432
LeftForeArm  39.4032 -31.1699 -6.10723
LeftHand  0.268437 -12.4941 -2.82338
RightShoulder  0 2.42657e-020 1.07489e-018
RightArm  -38.5412 47.3729 52.9461
RightForeArm  61.9945 50.7281 12.427
RightHand  -4.2453 26.0552 -17.8359
LeftUpLeg  -70.7208 6.80814 14.9463
LeftLeg  75.7211 -0.82103 -2.5524
LeftFoot  -19.0332 -0.165773 -0.988843
LeftToes  -43.0898 2.01279e-006 2.21547e-008
275
root  -74.1362 24.6147 12.3637 22.0461 85.951 -8.22491
RightUpLeg  -51.4401 -12.2459 -26.6349
RightLeg  64.5385 1.56327 2.68382
RightFoot  -24.4013 0.188867 1.25107
RightToes  -66.1851 -0.453671 -0.415338
Spine  23.0981 2.06635 3.00928
Spine1  36.9015 4.91845 5.18021
HEad  -12.9276 -8.31497 7.18139
LeftShoulder1  0 -2.42657e-020 -4.95415e-022
LeftArm  -10.0292 -46.4509 -92.5202
LeftForeArm  37.6303 -32.3949 -6.41064
LeftHand  0.251141 -12.461 -2.67151
RightShoulder  0 2.42657e-020 1.07489e-018
RightArm  -43.6707 52.0711 50.2033
RightForeArm  62.789 35.6977 7.22318
RightHand  -4.61815 26.7361 -18.8944
LeftUpLeg  -76.5155 7.61529 18.4079
LeftLeg  82.1586 -0.462908 -2.30318
LeftFoot  -21.0385 -0.270761 -1.4581
LeftToes  -34.7864 2.01279e-006 2.21547e-008
276
root  -74.4816 23.3437 12.9217 -28.9011 88.0534 -58.0675
RightUpLeg  -53.3506 -13.5621 -25.2306
RightLeg  72.629 1.45079 3.55961
RightFoot  -27.3412 0.209724 1.23981
RightToes  -67.6038 -0.467403 -0.415289
Spine  24.2044 2.50435 5.12073
Spine1  39.0583 6.95922 6.00017
HEad  -12.3617 -9.92272 8.55793
LeftShoulder1  0 -2.42657e-020 -4.95415e-022
LeftArm  -5.78268 -48.417 -96.2325
LeftForeArm  37.5482 -33.4696 -6.68223
LeftHand  0.2056 -12.5409 -2.24217
RightShoulder  0 2.42657e-020 1.07489e-018
RightArm  -60.2756 57.5979 46.0927
RightForeArm  65.321 20.6886 3.75457
RightHand  -3.96773 24.7282 -17.5934
LeftUpLeg  -79.8092 7.93776 21.6476
LeftLeg  87.9608 0.26143 2.5391
LeftFoot  -24.6451 -0.858408 -3.92813
LeftToes  -24.9907 2.01279e-006 2.21547e-008
277
root  -74.4512 22.7744 12.8919 -114.267 87.0554 -142.181
RightUpLeg  -50.7293 -16.1439 -25.0717
RightLeg  74.3261 1.58925 4.28328
RightFoot  -29.1031 0.112773 0.812016
RightToes  -68.0494 -0.471726 -0.41465
Spine  24.1464 1.4882 6.9974
Spine1  39.334 4.71244 8.33533
HEad  -12.7305 -11.2007 10.1174
LeftShoulder1  0 -2.42657e-020 -4.95415e-022
LeftArm  -4.06315 -47.8325 -97.3396
LeftForeArm  37.2901 -34.6044 -6.97687
LeftHand  0.181292 -12.4732 -2.02991
RightShoulder  0 2.42657e-020 1.07489e-018
RightArm  -73.4637 56.6303 47.3655
RightForeArm  46.5485 18.0207 3.26456
RightHand  -2.83251 23.428 -13.2329
LeftUpLeg  -81.3834 6.92528 22.4067
LeftLeg  90.5844 0.226667 4.05474
LeftFoot  -24.6822 -1.04751 -4.78519
LeftToes  -22.4984 2.01279e-006 2.21547e-008
278
root  -74.1549 22.9468 12.2249 -121.799 86.0812 -149.092
RightUpLeg  -47.6382 -16.1595 -25.8087
RightLeg  71.6927 1.44545 3.38428
RightFoot  -27.2451 0.181951 1.12837
RightToes  -68.6376 -0.477439 -0.414251
Spine  23.0552 0.43062 7.78596
Spine1  37.8099 1.77307 10.1065
HEad  -12.3414 -10.8202 9.72668
LeftShoulder1  0 -2.42657e-020 -4.95415e-022
LeftArm  -4.61059 -44.4855 -95.2747
LeftForeArm  35.3282 -36.4947 -7.48824
LeftHand  0.186862 -12.2219 -2.11636
RightShoulder  0 2.42657e-020 1.07489e-018
RightArm  -62.299 50.0031 54.2234
RightForeArm  44.913 25.3272 4.76474
RightHand  -3.47157 23.1782 -16.4463
LeftUpLeg  -80.7856 6.61214 21.2382
LeftLeg  90.3157 0.204234 3.35146
LeftFoot  -20.0048 -0.704636 -3.99365
LeftToes  -30.4858 2.01279e-006 2.21547e-008
279
root  -73.6128 23.5877 11.0343 -88.8465 87.4164 -115.073
RightUpLeg  -44.2952 -11.7824 -27.8309
RightLeg  66.0307 0.454647 0.738079
RightFoot  -22.3332 0.35313 2.16639
RightToes  -68.5715 -0.476797 -0.414176
Spine  22.3229 -0.365647 7.4713
Spine1  36.9586 -0.487116 10.1089
HEad  -11.1326 -8.48824 7.71433
LeftShoulder1  0 -2.42657e-020 -4.95415e-022
LeftArm  -7.1816 -40.1847 -91.5005
LeftForeArm  34.9353 -38.6407 -8.09913
LeftHand  0.142707 -11.7445 -1.75843
RightShoulder  0 2.42657e-020 1.07489e-018
RightArm  -53.4078 43.75 61.1057
RightForeArm  58.277 32.8166 6.48343
RightHand  -4.99801 20.0581 -27.3635
LeftUpLeg  -77.1807 7.31572 18.3265
LeftLeg  89.4513 0.252359 3.31483
LeftFoot  -20.1025 -0.64268 -3.6247
LeftToes  -35.3713 2.01279e-006 2.21547e-008
280
root  -73.0592 24.5518 9.53906 -20.6653 86.625 -46.7368
RightUpLeg  -42.8801 -4.52991 -29.9838
RightLeg  60.747 -4.28022 -6.65988
RightFoot  -13.258 0.418272 3.97566
RightToes  -61.2206 -0.406099 -0.401239
Spine  21.2275 -1.1339 6.90241
Spine1  35.3459 -2.73556 10.1248
HEad  -9.3868 -6.2703 4.92258
LeftShoulder1  0 -2.42657e-020 -4.95415e-022
LeftArm  -10.1134 -35.3879 -88.8874
LeftForeArm  35.354 -39.6182 -8.38951
LeftHand  0.124406 -11.8051 -1.57416
RightShoulder  0 2.42657e-020 1.07489e-018
RightArm  -47.9195 37.5891 65.5644
RightForeArm  48.1498 42.3628 9.24063
RightHand  -4.44636 20.6705 -23.6719
LeftUpLeg  -73.3922 7.09838 14.4842
LeftLeg  87.4603 0.636339 5.75424
LeftFoot  -21.9457 -0.814356 -4.19832
LeftToes  -30.8679 2.01279e-006 2.21547e-008
281
root  -72.5529 25.5011 7.91164 10.4562 83.9023 -16.6679
RightUpLeg  -44.6559 0.527376 -31.6087
RightLeg  59.795 -9.95322 -14.4994
RightFoot  -9.47372 0.374027 4.88941
RightToes  -42.1614 -0.235975 -0.327003
Spine  19.9599 -1.73263 6.31226
Spine1  33.2908 -4.33383 9.77493
HEad  -8.04712 -4.24147 2.23389
LeftShoulder1  0 -2.42657e-020 -4.95415e-022
LeftArm  -12.0631 -31.5841 -88.3169
LeftForeArm  35.8968 -39.535 -8.36392
LeftHand  0.111157 -11.7682 -1.44934
RightShoulder  0 2.42657e-020 1.07489e-018
RightArm  -41.3665 33.5619 67.8144
RightForeArm  56.866 46.1173 10.54
RightHand  -5.1288 20.583 -27.3496
LeftUpLeg  -70.7212 5.06201 10.1443
LeftLeg  84.5715 1.64039 10.0793
LeftFoot  -23.6853 -1.19503 -5.6946
LeftToes  -24.9301 2.01279e-006 2.21547e-008
282
root  -72.0336 26.205 6.46873 19.6423 80.3909 -8.23721
RightUpLeg  -48.3561 4.2699 -30.8501
RightLeg  61.2614 -5.7626 -9.07073
RightFoot  -15.5397 0.556507 4.45461
RightToes  -43.8558 -0.249995 -0.335851
Spine  19.6743 -1.63354 5.99841
Spine1  32.5094 -4.81491 10.396
HEad  -8.19341 -4.05953 -0.0450443
LeftShoulder1  0 -2.42657e-020 -4.95415e-022
LeftArm  -11.4179 -30.6901 -88.8331
LeftForeArm  36.7211 -38.9334 -8.18365
LeftHand  0.0749634 -12.042 -1.08128
RightShoulder  0 2.42657e-020 1.07489e-018
RightArm  -35.727 29.6409 68.6571
RightForeArm  59.9186 49.3244 11.8154
RightHand  -5.78965 18.7679 -33.6673
LeftUpLeg  -68.4768 3.45758 6.40863
LeftLeg  82.4017 2.90439 14.2202
LeftFoot  -25.187 -1.6786 -7.50344
LeftToes  -18.2045 2.01279e-006 2.21547e-008
283
root  -71.5864 26.5476 5.03491 27.5918 77.7376 -0.686714
RightUpLeg  -53.37 2.23444 -26.447
RightLeg  68.2835 -1.20592 -2.68747
RightFoot  -20.9352 0.390438 2.49068
RightToes  -49.3921 -0.297515 -0.361805
Spine  20.307 -1.13479 6.28926
Spine1  33.091 -4.30371 11.4514
HEad  -9.74303 -5.54081 -2.21484
LeftShoulder1  0 -2.42657e-020 -4.95415e-022
LeftArm  -9.45047 -32.6382 -91.4303
LeftForeArm  37.3125 -37.6746 -7.81746
LeftHand  0.0567081 -12.2452 -0.89911
RightShoulder  0 2.42657e-020 1.07489e-018
RightArm  -33.0772 29.1356 67.2231
RightForeArm  69.3423 44.7527 10.0025
RightHand  -7.5948 16.7743 -48.1193
LeftUpLeg  -67.2529 0.336606 2.4625
LeftLeg  81.2997 4.21731 18.4899
LeftFoot  -26.9927 -2.35188 -9.77662
LeftToes  -9.9541 2.01279e-006 2.21547e-008
284
root  -71.2914 26.7275 3.61854 36.7254 74.4798 6.38391
RightUpLeg  -61.4496 -2.51321 -19.0626
RightLeg  76.6202 1.86209 5.76804
RightFoot  -24.9432 -0.37201 -1.30435
RightToes  -53.5566 -0.334789 -0.378238
Spine  20.6798 -0.0362579 6.65844
Spine1  33.2955 -1.96232 11.5026
HEad  -11.0229 -7.22307 -4.00951
LeftShoulder1  0 -2.42657e-020 -4.95415e-022
LeftArm  -7.49065 -34.4971 -93.83
LeftForeArm  37.4287 -37.3601 -7.728
LeftHand  0.101356 -12.2849 -1.31248
RightShoulder  0 2.42657e-020 1.07489e-018
RightArm  -39.6856 32.3792 66.0452
RightForeArm  71.4449 33.0721 6.51173
RightHand  -7.97817 18.5687 -45.8483
LeftUpLeg  -68.7916 -0.656761 -2.47918
LeftLeg  80.8216 4.75498 19.9275
LeftFoot  -26.7034 -2.38901 -10.0413
LeftToes  -7.77338 2.01279e-006 2.21547e-008
285
root  -71.0678 26.7658 2.15108 45.5901 70.7055 12.311
RightUpLeg  -69.8252 -2.76988 -13.6764
RightLeg  82.4988 2.82996 13.5666
RightFoot  -26.1767 -1.33547 -5.36219
RightToes  -56.0725 -0.357851 -0.386838
Spine  20.5203 1.05056 6.69763
Spine1  32.5171 0.388776 11.2119
HEad  -11.8471 -9.3118 -6.34426
LeftShoulder1  0 -2.42657e-020 -4.95415e-022
LeftArm  -6.22232 -35.494 -93.9995
LeftForeArm  35.4792 -37.303 -7.71381
LeftHand  0.15857 -12.1689 -1.85852
RightShoulder  0 2.42657e-020 1.07489e-018
RightArm  -54.0793 36.2543 63.575
RightForeArm  58.6957 22.7977 4.20202
RightHand  -5.50363 20.9305 -28.8101
LeftUpLeg  -72.3411 0.326189 -6.74721
LeftLeg  81.7693 2.50167 11.6577
LeftFoot  -24.5871 -1.11678 -5.12155
LeftToes  -14.2967 2.01279e-006 2.21547e-008
286
root  -70.7191 26.5919 0.703704 56.615 67.652 21.0681
RightUpLeg  -72.9822 -1.49437 -15.0251
RightLeg  84.8965 0.176593 0.487028
RightFoot  -28.5257 0.0218805 0.463634
RightToes  -35.7116 -0.185164 -0.289639
Spine  19.5915 0.8872 6.4449
Spine1  30.3806 0.113073 11.0382
HEad  -12.143 -10.7751 -9.22035
LeftShoulder1  0 -2.42657e-020 -4.95415e-022
LeftArm  -7.36955 -35.4651 -91.2533
LeftForeArm  33.9744 -36.2747 -7.42881
LeftHand  0.172584 -11.7691 -2.04551
RightShoulder  0 2.42657e-020 1.07489e-018
RightArm  -91.7484 39.1524 62.4568
RightForeArm  43.6981 16.4058 2.9568
RightHand  -1.13767 23.8015 -5.02574
LeftUpLeg  -74.738 -0.0982198 -8.10346
LeftLeg  83.789 -0.625861 -3.62338
LeftFoot  -21.1005 0.216112 1.16031
LeftToes  -30.484 2.01279e-006 2.21547e-008
